# xmcd
#
# Track frame offsets:
# 150
# 12117
# 23357
# 36925
# 49007
# 60187
# 72030
# 82692
# 93485
# 106090
#
# Disc length: 1580 seconds
#
#
# Revision: 2
# Processed by: cddbd v1.5.1PL2 Copyright (c) Steve Scherf et al.
# Submitted via: FreeRIP 2.945 
#
DISCID=60062a0a
DTITLE=Stonewall Jackson - American Originals
DYEAR=1900
DGENRE=Country
TTITLE0=Smoke Along the Track
TTITLE1=Life To Go
TTITLE2=Don't Be Angry
TTITLE3=A Wound Time Can't Erase
TTITLE4=Waterloo
TTITLE5=Me And You And A Dog Named Boo
TTITLE6=Life Of A Poor Boy
TTITLE7=Mary Don't You Weep
TTITLE8=Leona
TTITLE9=Blues Plus Booze(Means I Lose)
EXTD=Columbia Records
EXTT0=
EXTT1=
EXTT2=
EXTT3=
EXTT4=
EXTT5=
EXTT6=
EXTT7=
EXTT8=
EXTT9=
PLAYORDER=
